<mxfile host="65bd71144e">
    <diagram id="qtfk5og69BgMeNozcCLc" name="Statistics">
        <mxGraphModel dx="13081" dy="15756" grid="1" gridSize="10" guides="1" tooltips="1" connect="1" arrows="1" fold="1" page="1" pageScale="1" pageWidth="827" pageHeight="1169" math="0" shadow="0">
            <root>
                <mxCell id="0"/>
                <mxCell id="1" parent="0"/>
                <mxCell id="185" value="" style="rounded=0;whiteSpace=wrap;html=1;fillColor=none;fontSize=13;spacing=3;strokeWidth=6;" vertex="1" parent="1">
                    <mxGeometry x="-1760" y="2600" width="5500" height="3520" as="geometry"/>
                </mxCell>
                <mxCell id="199" value="" style="rounded=0;whiteSpace=wrap;html=1;fillColor=none;strokeWidth=6;" vertex="1" parent="1">
                    <mxGeometry x="4134.5" y="-1410" width="2091" height="3560" as="geometry"/>
                </mxCell>
                <mxCell id="206" value="" style="edgeStyle=orthogonalEdgeStyle;rounded=0;orthogonalLoop=1;jettySize=auto;html=1;fontSize=200;" edge="1" parent="1" source="197">
                    <mxGeometry relative="1" as="geometry">
                        <mxPoint x="3790" y="1715.2000000000007" as="targetPoint"/>
                    </mxGeometry>
                </mxCell>
                <mxCell id="197" value="" style="rounded=0;whiteSpace=wrap;html=1;fillColor=none;strokeWidth=6;" vertex="1" parent="1">
                    <mxGeometry x="-1760" y="1169" width="5510" height="980" as="geometry"/>
                </mxCell>
                <mxCell id="191" value="" style="rounded=0;whiteSpace=wrap;html=1;fillColor=none;strokeWidth=6;" vertex="1" parent="1">
                    <mxGeometry x="-1760" y="-1400" width="5510" height="980" as="geometry"/>
                </mxCell>
                <mxCell id="g4WrYvB8RdJQh1RJ1ry5-81" value="" style="rounded=0;whiteSpace=wrap;html=1;fillColor=none;strokeWidth=6;" parent="1" vertex="1">
                    <mxGeometry x="-1760" y="-203" width="5510" height="900" as="geometry"/>
                </mxCell>
                <mxCell id="g4WrYvB8RdJQh1RJ1ry5-2" value="Statistic" style="swimlane;fontStyle=0;childLayout=stackLayout;horizontal=1;startSize=26;horizontalStack=0;resizeParent=1;resizeParentMax=0;resizeLast=0;collapsible=1;marginBottom=0;align=center;fontSize=14;" parent="1" vertex="1">
                    <mxGeometry x="450" y="-110" width="160" height="540" as="geometry"/>
                </mxCell>
                <mxCell id="g4WrYvB8RdJQh1RJ1ry5-3" value="id" style="text;strokeColor=none;fillColor=none;spacingLeft=4;spacingRight=4;overflow=hidden;rotatable=0;points=[[0,0.5],[1,0.5]];portConstraint=eastwest;fontSize=12;" parent="g4WrYvB8RdJQh1RJ1ry5-2" vertex="1">
                    <mxGeometry y="26" width="160" height="34" as="geometry"/>
                </mxCell>
                <mxCell id="g4WrYvB8RdJQh1RJ1ry5-29" value="user_id" style="text;strokeColor=none;fillColor=none;spacingLeft=4;spacingRight=4;overflow=hidden;rotatable=0;points=[[0,0.5],[1,0.5]];portConstraint=eastwest;fontSize=12;" parent="g4WrYvB8RdJQh1RJ1ry5-2" vertex="1">
                    <mxGeometry y="60" width="160" height="30" as="geometry"/>
                </mxCell>
                <mxCell id="g4WrYvB8RdJQh1RJ1ry5-40" value="statistic_progress" style="text;strokeColor=none;fillColor=none;spacingLeft=4;spacingRight=4;overflow=hidden;rotatable=0;points=[[0,0.5],[1,0.5]];portConstraint=eastwest;fontSize=12;" parent="g4WrYvB8RdJQh1RJ1ry5-2" vertex="1">
                    <mxGeometry y="90" width="160" height="30" as="geometry"/>
                </mxCell>
                <mxCell id="g4WrYvB8RdJQh1RJ1ry5-39" value="month_words" style="text;strokeColor=none;fillColor=none;spacingLeft=4;spacingRight=4;overflow=hidden;rotatable=0;points=[[0,0.5],[1,0.5]];portConstraint=eastwest;fontSize=12;" parent="g4WrYvB8RdJQh1RJ1ry5-2" vertex="1">
                    <mxGeometry y="120" width="160" height="30" as="geometry"/>
                </mxCell>
                <mxCell id="g4WrYvB8RdJQh1RJ1ry5-38" value="month_diaries" style="text;strokeColor=none;fillColor=none;spacingLeft=4;spacingRight=4;overflow=hidden;rotatable=0;points=[[0,0.5],[1,0.5]];portConstraint=eastwest;fontSize=12;" parent="g4WrYvB8RdJQh1RJ1ry5-2" vertex="1">
                    <mxGeometry y="150" width="160" height="30" as="geometry"/>
                </mxCell>
                <mxCell id="g4WrYvB8RdJQh1RJ1ry5-28" value="year_words" style="text;strokeColor=none;fillColor=none;spacingLeft=4;spacingRight=4;overflow=hidden;rotatable=0;points=[[0,0.5],[1,0.5]];portConstraint=eastwest;fontSize=12;" parent="g4WrYvB8RdJQh1RJ1ry5-2" vertex="1">
                    <mxGeometry y="180" width="160" height="30" as="geometry"/>
                </mxCell>
                <mxCell id="g4WrYvB8RdJQh1RJ1ry5-43" value="year_diaries" style="text;strokeColor=none;fillColor=none;spacingLeft=4;spacingRight=4;overflow=hidden;rotatable=0;points=[[0,0.5],[1,0.5]];portConstraint=eastwest;fontSize=12;" parent="g4WrYvB8RdJQh1RJ1ry5-2" vertex="1">
                    <mxGeometry y="210" width="160" height="30" as="geometry"/>
                </mxCell>
                <mxCell id="g4WrYvB8RdJQh1RJ1ry5-41" value="total_words" style="text;strokeColor=none;fillColor=none;spacingLeft=4;spacingRight=4;overflow=hidden;rotatable=0;points=[[0,0.5],[1,0.5]];portConstraint=eastwest;fontSize=12;" parent="g4WrYvB8RdJQh1RJ1ry5-2" vertex="1">
                    <mxGeometry y="240" width="160" height="30" as="geometry"/>
                </mxCell>
                <mxCell id="g4WrYvB8RdJQh1RJ1ry5-4" value="total_diaries" style="text;strokeColor=none;fillColor=none;spacingLeft=4;spacingRight=4;overflow=hidden;rotatable=0;points=[[0,0.5],[1,0.5]];portConstraint=eastwest;fontSize=12;" parent="g4WrYvB8RdJQh1RJ1ry5-2" vertex="1">
                    <mxGeometry y="270" width="160" height="30" as="geometry"/>
                </mxCell>
                <mxCell id="g4WrYvB8RdJQh1RJ1ry5-34" value="total_noun_asc" style="text;strokeColor=none;fillColor=none;spacingLeft=4;spacingRight=4;overflow=hidden;rotatable=0;points=[[0,0.5],[1,0.5]];portConstraint=eastwest;fontSize=12;" parent="g4WrYvB8RdJQh1RJ1ry5-2" vertex="1">
                    <mxGeometry y="300" width="160" height="30" as="geometry"/>
                </mxCell>
                <mxCell id="g4WrYvB8RdJQh1RJ1ry5-32" value="total_adjective_asc" style="text;strokeColor=none;fillColor=none;spacingLeft=4;spacingRight=4;overflow=hidden;rotatable=0;points=[[0,0.5],[1,0.5]];portConstraint=eastwest;fontSize=12;" parent="g4WrYvB8RdJQh1RJ1ry5-2" vertex="1">
                    <mxGeometry y="330" width="160" height="30" as="geometry"/>
                </mxCell>
                <mxCell id="g4WrYvB8RdJQh1RJ1ry5-42" value="total_adjective_asc" style="text;strokeColor=none;fillColor=none;spacingLeft=4;spacingRight=4;overflow=hidden;rotatable=0;points=[[0,0.5],[1,0.5]];portConstraint=eastwest;fontSize=12;" parent="g4WrYvB8RdJQh1RJ1ry5-2" vertex="1">
                    <mxGeometry y="360" width="160" height="30" as="geometry"/>
                </mxCell>
                <mxCell id="g4WrYvB8RdJQh1RJ1ry5-36" value="ave_emotions" style="text;strokeColor=none;fillColor=none;spacingLeft=4;spacingRight=4;overflow=hidden;rotatable=0;points=[[0,0.5],[1,0.5]];portConstraint=eastwest;fontSize=12;" parent="g4WrYvB8RdJQh1RJ1ry5-2" vertex="1">
                    <mxGeometry y="390" width="160" height="30" as="geometry"/>
                </mxCell>
                <mxCell id="g4WrYvB8RdJQh1RJ1ry5-35" value="classifications" style="text;strokeColor=none;fillColor=none;spacingLeft=4;spacingRight=4;overflow=hidden;rotatable=0;points=[[0,0.5],[1,0.5]];portConstraint=eastwest;fontSize=12;" parent="g4WrYvB8RdJQh1RJ1ry5-2" vertex="1">
                    <mxGeometry y="420" width="160" height="30" as="geometry"/>
                </mxCell>
                <mxCell id="g4WrYvB8RdJQh1RJ1ry5-30" value="special_people" style="text;strokeColor=none;fillColor=none;spacingLeft=4;spacingRight=4;overflow=hidden;rotatable=0;points=[[0,0.5],[1,0.5]];portConstraint=eastwest;fontSize=12;" parent="g4WrYvB8RdJQh1RJ1ry5-2" vertex="1">
                    <mxGeometry y="450" width="160" height="30" as="geometry"/>
                </mxCell>
                <mxCell id="g4WrYvB8RdJQh1RJ1ry5-33" value="created_at" style="text;strokeColor=none;fillColor=none;spacingLeft=4;spacingRight=4;overflow=hidden;rotatable=0;points=[[0,0.5],[1,0.5]];portConstraint=eastwest;fontSize=12;" parent="g4WrYvB8RdJQh1RJ1ry5-2" vertex="1">
                    <mxGeometry y="480" width="160" height="30" as="geometry"/>
                </mxCell>
                <mxCell id="g4WrYvB8RdJQh1RJ1ry5-31" value="updated_at" style="text;strokeColor=none;fillColor=none;spacingLeft=4;spacingRight=4;overflow=hidden;rotatable=0;points=[[0,0.5],[1,0.5]];portConstraint=eastwest;fontSize=12;" parent="g4WrYvB8RdJQh1RJ1ry5-2" vertex="1">
                    <mxGeometry y="510" width="160" height="30" as="geometry"/>
                </mxCell>
                <mxCell id="g4WrYvB8RdJQh1RJ1ry5-44" value="Statistic_per_month" style="swimlane;fontStyle=0;childLayout=stackLayout;horizontal=1;startSize=26;horizontalStack=0;resizeParent=1;resizeParentMax=0;resizeLast=0;collapsible=1;marginBottom=0;align=center;fontSize=14;" parent="1" vertex="1">
                    <mxGeometry x="780" y="-110" width="160" height="450" as="geometry"/>
                </mxCell>
                <mxCell id="g4WrYvB8RdJQh1RJ1ry5-45" value="id" style="text;strokeColor=none;fillColor=none;spacingLeft=4;spacingRight=4;overflow=hidden;rotatable=0;points=[[0,0.5],[1,0.5]];portConstraint=eastwest;fontSize=12;" parent="g4WrYvB8RdJQh1RJ1ry5-44" vertex="1">
                    <mxGeometry y="26" width="160" height="34" as="geometry"/>
                </mxCell>
                <mxCell id="g4WrYvB8RdJQh1RJ1ry5-46" value="user_id" style="text;strokeColor=none;fillColor=none;spacingLeft=4;spacingRight=4;overflow=hidden;rotatable=0;points=[[0,0.5],[1,0.5]];portConstraint=eastwest;fontSize=12;" parent="g4WrYvB8RdJQh1RJ1ry5-44" vertex="1">
                    <mxGeometry y="60" width="160" height="30" as="geometry"/>
                </mxCell>
                <mxCell id="g4WrYvB8RdJQh1RJ1ry5-63" value="statistic_progress" style="text;strokeColor=none;fillColor=none;spacingLeft=4;spacingRight=4;overflow=hidden;rotatable=0;points=[[0,0.5],[1,0.5]];portConstraint=eastwest;fontSize=12;" parent="g4WrYvB8RdJQh1RJ1ry5-44" vertex="1">
                    <mxGeometry y="90" width="160" height="30" as="geometry"/>
                </mxCell>
                <mxCell id="g4WrYvB8RdJQh1RJ1ry5-47" value="year" style="text;strokeColor=none;fillColor=none;spacingLeft=4;spacingRight=4;overflow=hidden;rotatable=0;points=[[0,0.5],[1,0.5]];portConstraint=eastwest;fontSize=12;" parent="g4WrYvB8RdJQh1RJ1ry5-44" vertex="1">
                    <mxGeometry y="120" width="160" height="30" as="geometry"/>
                </mxCell>
                <mxCell id="g4WrYvB8RdJQh1RJ1ry5-48" value="month" style="text;strokeColor=none;fillColor=none;spacingLeft=4;spacingRight=4;overflow=hidden;rotatable=0;points=[[0,0.5],[1,0.5]];portConstraint=eastwest;fontSize=12;" parent="g4WrYvB8RdJQh1RJ1ry5-44" vertex="1">
                    <mxGeometry y="150" width="160" height="30" as="geometry"/>
                </mxCell>
                <mxCell id="g4WrYvB8RdJQh1RJ1ry5-49" value="ave_emotions" style="text;strokeColor=none;fillColor=none;spacingLeft=4;spacingRight=4;overflow=hidden;rotatable=0;points=[[0,0.5],[1,0.5]];portConstraint=eastwest;fontSize=12;" parent="g4WrYvB8RdJQh1RJ1ry5-44" vertex="1">
                    <mxGeometry y="180" width="160" height="30" as="geometry"/>
                </mxCell>
                <mxCell id="g4WrYvB8RdJQh1RJ1ry5-50" value="word_counts" style="text;strokeColor=none;fillColor=none;spacingLeft=4;spacingRight=4;overflow=hidden;rotatable=0;points=[[0,0.5],[1,0.5]];portConstraint=eastwest;fontSize=12;" parent="g4WrYvB8RdJQh1RJ1ry5-44" vertex="1">
                    <mxGeometry y="210" width="160" height="30" as="geometry"/>
                </mxCell>
                <mxCell id="g4WrYvB8RdJQh1RJ1ry5-51" value="noun_rank" style="text;strokeColor=none;fillColor=none;spacingLeft=4;spacingRight=4;overflow=hidden;rotatable=0;points=[[0,0.5],[1,0.5]];portConstraint=eastwest;fontSize=12;" parent="g4WrYvB8RdJQh1RJ1ry5-44" vertex="1">
                    <mxGeometry y="240" width="160" height="30" as="geometry"/>
                </mxCell>
                <mxCell id="g4WrYvB8RdJQh1RJ1ry5-52" value="adjective_rank" style="text;strokeColor=none;fillColor=none;spacingLeft=4;spacingRight=4;overflow=hidden;rotatable=0;points=[[0,0.5],[1,0.5]];portConstraint=eastwest;fontSize=12;" parent="g4WrYvB8RdJQh1RJ1ry5-44" vertex="1">
                    <mxGeometry y="270" width="160" height="30" as="geometry"/>
                </mxCell>
                <mxCell id="g4WrYvB8RdJQh1RJ1ry5-53" value="important_words" style="text;strokeColor=none;fillColor=none;spacingLeft=4;spacingRight=4;overflow=hidden;rotatable=0;points=[[0,0.5],[1,0.5]];portConstraint=eastwest;fontSize=12;" parent="g4WrYvB8RdJQh1RJ1ry5-44" vertex="1">
                    <mxGeometry y="300" width="160" height="30" as="geometry"/>
                </mxCell>
                <mxCell id="g4WrYvB8RdJQh1RJ1ry5-54" value="special_people" style="text;strokeColor=none;fillColor=none;spacingLeft=4;spacingRight=4;overflow=hidden;rotatable=0;points=[[0,0.5],[1,0.5]];portConstraint=eastwest;fontSize=12;" parent="g4WrYvB8RdJQh1RJ1ry5-44" vertex="1">
                    <mxGeometry y="330" width="160" height="30" as="geometry"/>
                </mxCell>
                <mxCell id="g4WrYvB8RdJQh1RJ1ry5-55" value="classifications" style="text;strokeColor=none;fillColor=none;spacingLeft=4;spacingRight=4;overflow=hidden;rotatable=0;points=[[0,0.5],[1,0.5]];portConstraint=eastwest;fontSize=12;" parent="g4WrYvB8RdJQh1RJ1ry5-44" vertex="1">
                    <mxGeometry y="360" width="160" height="30" as="geometry"/>
                </mxCell>
                <mxCell id="g4WrYvB8RdJQh1RJ1ry5-60" value="created_at" style="text;strokeColor=none;fillColor=none;spacingLeft=4;spacingRight=4;overflow=hidden;rotatable=0;points=[[0,0.5],[1,0.5]];portConstraint=eastwest;fontSize=12;" parent="g4WrYvB8RdJQh1RJ1ry5-44" vertex="1">
                    <mxGeometry y="390" width="160" height="30" as="geometry"/>
                </mxCell>
                <mxCell id="g4WrYvB8RdJQh1RJ1ry5-61" value="updated_at" style="text;strokeColor=none;fillColor=none;spacingLeft=4;spacingRight=4;overflow=hidden;rotatable=0;points=[[0,0.5],[1,0.5]];portConstraint=eastwest;fontSize=12;" parent="g4WrYvB8RdJQh1RJ1ry5-44" vertex="1">
                    <mxGeometry y="420" width="160" height="30" as="geometry"/>
                </mxCell>
                <mxCell id="g4WrYvB8RdJQh1RJ1ry5-64" value="Statistic_per_year" style="swimlane;fontStyle=0;childLayout=stackLayout;horizontal=1;startSize=26;horizontalStack=0;resizeParent=1;resizeParentMax=0;resizeLast=0;collapsible=1;marginBottom=0;align=center;fontSize=14;" parent="1" vertex="1">
                    <mxGeometry x="1070" y="-110" width="160" height="390" as="geometry"/>
                </mxCell>
                <mxCell id="g4WrYvB8RdJQh1RJ1ry5-65" value="id" style="text;strokeColor=none;fillColor=none;spacingLeft=4;spacingRight=4;overflow=hidden;rotatable=0;points=[[0,0.5],[1,0.5]];portConstraint=eastwest;fontSize=12;" parent="g4WrYvB8RdJQh1RJ1ry5-64" vertex="1">
                    <mxGeometry y="26" width="160" height="34" as="geometry"/>
                </mxCell>
                <mxCell id="g4WrYvB8RdJQh1RJ1ry5-66" value="user_id" style="text;strokeColor=none;fillColor=none;spacingLeft=4;spacingRight=4;overflow=hidden;rotatable=0;points=[[0,0.5],[1,0.5]];portConstraint=eastwest;fontSize=12;" parent="g4WrYvB8RdJQh1RJ1ry5-64" vertex="1">
                    <mxGeometry y="60" width="160" height="30" as="geometry"/>
                </mxCell>
                <mxCell id="g4WrYvB8RdJQh1RJ1ry5-67" value="statistic_progress" style="text;strokeColor=none;fillColor=none;spacingLeft=4;spacingRight=4;overflow=hidden;rotatable=0;points=[[0,0.5],[1,0.5]];portConstraint=eastwest;fontSize=12;" parent="g4WrYvB8RdJQh1RJ1ry5-64" vertex="1">
                    <mxGeometry y="90" width="160" height="30" as="geometry"/>
                </mxCell>
                <mxCell id="g4WrYvB8RdJQh1RJ1ry5-68" value="year" style="text;strokeColor=none;fillColor=none;spacingLeft=4;spacingRight=4;overflow=hidden;rotatable=0;points=[[0,0.5],[1,0.5]];portConstraint=eastwest;fontSize=12;" parent="g4WrYvB8RdJQh1RJ1ry5-64" vertex="1">
                    <mxGeometry y="120" width="160" height="30" as="geometry"/>
                </mxCell>
                <mxCell id="g4WrYvB8RdJQh1RJ1ry5-70" value="ave_emotions" style="text;strokeColor=none;fillColor=none;spacingLeft=4;spacingRight=4;overflow=hidden;rotatable=0;points=[[0,0.5],[1,0.5]];portConstraint=eastwest;fontSize=12;" parent="g4WrYvB8RdJQh1RJ1ry5-64" vertex="1">
                    <mxGeometry y="150" width="160" height="30" as="geometry"/>
                </mxCell>
                <mxCell id="g4WrYvB8RdJQh1RJ1ry5-72" value="noun_rank" style="text;strokeColor=none;fillColor=none;spacingLeft=4;spacingRight=4;overflow=hidden;rotatable=0;points=[[0,0.5],[1,0.5]];portConstraint=eastwest;fontSize=12;" parent="g4WrYvB8RdJQh1RJ1ry5-64" vertex="1">
                    <mxGeometry y="180" width="160" height="30" as="geometry"/>
                </mxCell>
                <mxCell id="g4WrYvB8RdJQh1RJ1ry5-73" value="adjective_rank" style="text;strokeColor=none;fillColor=none;spacingLeft=4;spacingRight=4;overflow=hidden;rotatable=0;points=[[0,0.5],[1,0.5]];portConstraint=eastwest;fontSize=12;" parent="g4WrYvB8RdJQh1RJ1ry5-64" vertex="1">
                    <mxGeometry y="210" width="160" height="30" as="geometry"/>
                </mxCell>
                <mxCell id="g4WrYvB8RdJQh1RJ1ry5-74" value="important_words" style="text;strokeColor=none;fillColor=none;spacingLeft=4;spacingRight=4;overflow=hidden;rotatable=0;points=[[0,0.5],[1,0.5]];portConstraint=eastwest;fontSize=12;" parent="g4WrYvB8RdJQh1RJ1ry5-64" vertex="1">
                    <mxGeometry y="240" width="160" height="30" as="geometry"/>
                </mxCell>
                <mxCell id="g4WrYvB8RdJQh1RJ1ry5-75" value="special_people" style="text;strokeColor=none;fillColor=none;spacingLeft=4;spacingRight=4;overflow=hidden;rotatable=0;points=[[0,0.5],[1,0.5]];portConstraint=eastwest;fontSize=12;" parent="g4WrYvB8RdJQh1RJ1ry5-64" vertex="1">
                    <mxGeometry y="270" width="160" height="30" as="geometry"/>
                </mxCell>
                <mxCell id="g4WrYvB8RdJQh1RJ1ry5-76" value="classifications" style="text;strokeColor=none;fillColor=none;spacingLeft=4;spacingRight=4;overflow=hidden;rotatable=0;points=[[0,0.5],[1,0.5]];portConstraint=eastwest;fontSize=12;" parent="g4WrYvB8RdJQh1RJ1ry5-64" vertex="1">
                    <mxGeometry y="300" width="160" height="30" as="geometry"/>
                </mxCell>
                <mxCell id="g4WrYvB8RdJQh1RJ1ry5-77" value="created_at" style="text;strokeColor=none;fillColor=none;spacingLeft=4;spacingRight=4;overflow=hidden;rotatable=0;points=[[0,0.5],[1,0.5]];portConstraint=eastwest;fontSize=12;" parent="g4WrYvB8RdJQh1RJ1ry5-64" vertex="1">
                    <mxGeometry y="330" width="160" height="30" as="geometry"/>
                </mxCell>
                <mxCell id="g4WrYvB8RdJQh1RJ1ry5-78" value="updated_at" style="text;strokeColor=none;fillColor=none;spacingLeft=4;spacingRight=4;overflow=hidden;rotatable=0;points=[[0,0.5],[1,0.5]];portConstraint=eastwest;fontSize=12;" parent="g4WrYvB8RdJQh1RJ1ry5-64" vertex="1">
                    <mxGeometry y="360" width="160" height="30" as="geometry"/>
                </mxCell>
                <mxCell id="g4WrYvB8RdJQh1RJ1ry5-82" value="&lt;font style=&quot;font-size: 200px;&quot;&gt;DB&lt;/font&gt;" style="text;html=1;strokeColor=none;fillColor=none;align=center;verticalAlign=middle;whiteSpace=wrap;rounded=0;fontSize=200;" parent="1" vertex="1">
                    <mxGeometry x="-1730" y="150" width="310" height="230" as="geometry"/>
                </mxCell>
                <mxCell id="g4WrYvB8RdJQh1RJ1ry5-83" value="Diary_people" style="swimlane;fontStyle=0;childLayout=stackLayout;horizontal=1;startSize=26;horizontalStack=0;resizeParent=1;resizeParentMax=0;resizeLast=0;collapsible=1;marginBottom=0;align=center;fontSize=14;" parent="1" vertex="1">
                    <mxGeometry x="1370" y="-110" width="160" height="120" as="geometry"/>
                </mxCell>
                <mxCell id="g4WrYvB8RdJQh1RJ1ry5-84" value="id" style="text;strokeColor=none;fillColor=none;spacingLeft=4;spacingRight=4;overflow=hidden;rotatable=0;points=[[0,0.5],[1,0.5]];portConstraint=eastwest;fontSize=12;" parent="g4WrYvB8RdJQh1RJ1ry5-83" vertex="1">
                    <mxGeometry y="26" width="160" height="34" as="geometry"/>
                </mxCell>
                <mxCell id="g4WrYvB8RdJQh1RJ1ry5-85" value="user_id" style="text;strokeColor=none;fillColor=none;spacingLeft=4;spacingRight=4;overflow=hidden;rotatable=0;points=[[0,0.5],[1,0.5]];portConstraint=eastwest;fontSize=12;" parent="g4WrYvB8RdJQh1RJ1ry5-83" vertex="1">
                    <mxGeometry y="60" width="160" height="30" as="geometry"/>
                </mxCell>
                <mxCell id="g4WrYvB8RdJQh1RJ1ry5-86" value="name" style="text;strokeColor=none;fillColor=none;spacingLeft=4;spacingRight=4;overflow=hidden;rotatable=0;points=[[0,0.5],[1,0.5]];portConstraint=eastwest;fontSize=12;" parent="g4WrYvB8RdJQh1RJ1ry5-83" vertex="1">
                    <mxGeometry y="90" width="160" height="30" as="geometry"/>
                </mxCell>
                <mxCell id="g4WrYvB8RdJQh1RJ1ry5-96" value="Search_setting" style="swimlane;fontStyle=0;childLayout=stackLayout;horizontal=1;startSize=26;horizontalStack=0;resizeParent=1;resizeParentMax=0;resizeLast=0;collapsible=1;marginBottom=0;align=center;fontSize=14;" parent="1" vertex="1">
                    <mxGeometry x="1670" y="-110" width="160" height="244" as="geometry"/>
                </mxCell>
                <mxCell id="g4WrYvB8RdJQh1RJ1ry5-97" value="id" style="text;strokeColor=none;fillColor=none;spacingLeft=4;spacingRight=4;overflow=hidden;rotatable=0;points=[[0,0.5],[1,0.5]];portConstraint=eastwest;fontSize=12;" parent="g4WrYvB8RdJQh1RJ1ry5-96" vertex="1">
                    <mxGeometry y="26" width="160" height="34" as="geometry"/>
                </mxCell>
                <mxCell id="g4WrYvB8RdJQh1RJ1ry5-98" value="user_id" style="text;strokeColor=none;fillColor=none;spacingLeft=4;spacingRight=4;overflow=hidden;rotatable=0;points=[[0,0.5],[1,0.5]];portConstraint=eastwest;fontSize=12;" parent="g4WrYvB8RdJQh1RJ1ry5-96" vertex="1">
                    <mxGeometry y="60" width="160" height="30" as="geometry"/>
                </mxCell>
                <mxCell id="g4WrYvB8RdJQh1RJ1ry5-99" value="rank" style="text;strokeColor=none;fillColor=none;spacingLeft=4;spacingRight=4;overflow=hidden;rotatable=0;points=[[0,0.5],[1,0.5]];portConstraint=eastwest;fontSize=12;" parent="g4WrYvB8RdJQh1RJ1ry5-96" vertex="1">
                    <mxGeometry y="90" width="160" height="30" as="geometry"/>
                </mxCell>
                <mxCell id="g4WrYvB8RdJQh1RJ1ry5-100" value="kinds" style="text;strokeColor=none;fillColor=none;spacingLeft=4;spacingRight=4;overflow=hidden;rotatable=0;points=[[0,0.5],[1,0.5]];portConstraint=eastwest;fontSize=12;" parent="g4WrYvB8RdJQh1RJ1ry5-96" vertex="1">
                    <mxGeometry y="120" width="160" height="34" as="geometry"/>
                </mxCell>
                <mxCell id="g4WrYvB8RdJQh1RJ1ry5-101" value="is_morphological" style="text;strokeColor=none;fillColor=none;spacingLeft=4;spacingRight=4;overflow=hidden;rotatable=0;points=[[0,0.5],[1,0.5]];portConstraint=eastwest;fontSize=12;" parent="g4WrYvB8RdJQh1RJ1ry5-96" vertex="1">
                    <mxGeometry y="154" width="160" height="30" as="geometry"/>
                </mxCell>
                <mxCell id="g4WrYvB8RdJQh1RJ1ry5-102" value="is_synonym" style="text;strokeColor=none;fillColor=none;spacingLeft=4;spacingRight=4;overflow=hidden;rotatable=0;points=[[0,0.5],[1,0.5]];portConstraint=eastwest;fontSize=12;" parent="g4WrYvB8RdJQh1RJ1ry5-96" vertex="1">
                    <mxGeometry y="184" width="160" height="30" as="geometry"/>
                </mxCell>
                <mxCell id="g4WrYvB8RdJQh1RJ1ry5-103" value="is_kana" style="text;strokeColor=none;fillColor=none;spacingLeft=4;spacingRight=4;overflow=hidden;rotatable=0;points=[[0,0.5],[1,0.5]];portConstraint=eastwest;fontSize=12;" parent="g4WrYvB8RdJQh1RJ1ry5-96" vertex="1">
                    <mxGeometry y="214" width="160" height="30" as="geometry"/>
                </mxCell>
                <mxCell id="g4WrYvB8RdJQh1RJ1ry5-105" value="Diary" style="swimlane;fontStyle=0;childLayout=stackLayout;horizontal=1;startSize=26;horizontalStack=0;resizeParent=1;resizeParentMax=0;resizeLast=0;collapsible=1;marginBottom=0;align=center;fontSize=14;" parent="1" vertex="1">
                    <mxGeometry x="170" y="-100" width="160" height="694" as="geometry"/>
                </mxCell>
                <mxCell id="g4WrYvB8RdJQh1RJ1ry5-106" value="id" style="text;strokeColor=none;fillColor=none;spacingLeft=4;spacingRight=4;overflow=hidden;rotatable=0;points=[[0,0.5],[1,0.5]];portConstraint=eastwest;fontSize=12;" parent="g4WrYvB8RdJQh1RJ1ry5-105" vertex="1">
                    <mxGeometry y="26" width="160" height="34" as="geometry"/>
                </mxCell>
                <mxCell id="g4WrYvB8RdJQh1RJ1ry5-124" value="uuid" style="text;strokeColor=none;fillColor=none;spacingLeft=4;spacingRight=4;overflow=hidden;rotatable=0;points=[[0,0.5],[1,0.5]];portConstraint=eastwest;fontSize=12;" parent="g4WrYvB8RdJQh1RJ1ry5-105" vertex="1">
                    <mxGeometry y="60" width="160" height="34" as="geometry"/>
                </mxCell>
                <mxCell id="g4WrYvB8RdJQh1RJ1ry5-107" value="user_id" style="text;strokeColor=none;fillColor=none;spacingLeft=4;spacingRight=4;overflow=hidden;rotatable=0;points=[[0,0.5],[1,0.5]];portConstraint=eastwest;fontSize=12;" parent="g4WrYvB8RdJQh1RJ1ry5-105" vertex="1">
                    <mxGeometry y="94" width="160" height="30" as="geometry"/>
                </mxCell>
                <mxCell id="g4WrYvB8RdJQh1RJ1ry5-108" value="title" style="text;strokeColor=none;fillColor=none;spacingLeft=4;spacingRight=4;overflow=hidden;rotatable=0;points=[[0,0.5],[1,0.5]];portConstraint=eastwest;fontSize=12;" parent="g4WrYvB8RdJQh1RJ1ry5-105" vertex="1">
                    <mxGeometry y="124" width="160" height="30" as="geometry"/>
                </mxCell>
                <mxCell id="g4WrYvB8RdJQh1RJ1ry5-109" value="content" style="text;strokeColor=none;fillColor=none;spacingLeft=4;spacingRight=4;overflow=hidden;rotatable=0;points=[[0,0.5],[1,0.5]];portConstraint=eastwest;fontSize=12;" parent="g4WrYvB8RdJQh1RJ1ry5-105" vertex="1">
                    <mxGeometry y="154" width="160" height="30" as="geometry"/>
                </mxCell>
                <mxCell id="g4WrYvB8RdJQh1RJ1ry5-110" value="date" style="text;strokeColor=none;fillColor=none;spacingLeft=4;spacingRight=4;overflow=hidden;rotatable=0;points=[[0,0.5],[1,0.5]];portConstraint=eastwest;fontSize=12;" parent="g4WrYvB8RdJQh1RJ1ry5-105" vertex="1">
                    <mxGeometry y="184" width="160" height="30" as="geometry"/>
                </mxCell>
                <mxCell id="g4WrYvB8RdJQh1RJ1ry5-111" value="sentence" style="text;strokeColor=none;fillColor=none;spacingLeft=4;spacingRight=4;overflow=hidden;rotatable=0;points=[[0,0.5],[1,0.5]];portConstraint=eastwest;fontSize=12;" parent="g4WrYvB8RdJQh1RJ1ry5-105" vertex="1">
                    <mxGeometry y="214" width="160" height="30" as="geometry"/>
                </mxCell>
                <mxCell id="g4WrYvB8RdJQh1RJ1ry5-112" value="chunk" style="text;strokeColor=none;fillColor=none;spacingLeft=4;spacingRight=4;overflow=hidden;rotatable=0;points=[[0,0.5],[1,0.5]];portConstraint=eastwest;fontSize=12;" parent="g4WrYvB8RdJQh1RJ1ry5-105" vertex="1">
                    <mxGeometry y="244" width="160" height="30" as="geometry"/>
                </mxCell>
                <mxCell id="g4WrYvB8RdJQh1RJ1ry5-113" value="token" style="text;strokeColor=none;fillColor=none;spacingLeft=4;spacingRight=4;overflow=hidden;rotatable=0;points=[[0,0.5],[1,0.5]];portConstraint=eastwest;fontSize=12;" parent="g4WrYvB8RdJQh1RJ1ry5-105" vertex="1">
                    <mxGeometry y="274" width="160" height="30" as="geometry"/>
                </mxCell>
                <mxCell id="g4WrYvB8RdJQh1RJ1ry5-114" value="affiliation" style="text;strokeColor=none;fillColor=none;spacingLeft=4;spacingRight=4;overflow=hidden;rotatable=0;points=[[0,0.5],[1,0.5]];portConstraint=eastwest;fontSize=12;" parent="g4WrYvB8RdJQh1RJ1ry5-105" vertex="1">
                    <mxGeometry y="304" width="160" height="30" as="geometry"/>
                </mxCell>
                <mxCell id="g4WrYvB8RdJQh1RJ1ry5-115" value="cause" style="text;strokeColor=none;fillColor=none;spacingLeft=4;spacingRight=4;overflow=hidden;rotatable=0;points=[[0,0.5],[1,0.5]];portConstraint=eastwest;fontSize=12;" parent="g4WrYvB8RdJQh1RJ1ry5-105" vertex="1">
                    <mxGeometry y="334" width="160" height="30" as="geometry"/>
                </mxCell>
                <mxCell id="g4WrYvB8RdJQh1RJ1ry5-116" value="effect" style="text;strokeColor=none;fillColor=none;spacingLeft=4;spacingRight=4;overflow=hidden;rotatable=0;points=[[0,0.5],[1,0.5]];portConstraint=eastwest;fontSize=12;" parent="g4WrYvB8RdJQh1RJ1ry5-105" vertex="1">
                    <mxGeometry y="364" width="160" height="30" as="geometry"/>
                </mxCell>
                <mxCell id="g4WrYvB8RdJQh1RJ1ry5-117" value="char_length" style="text;strokeColor=none;fillColor=none;spacingLeft=4;spacingRight=4;overflow=hidden;rotatable=0;points=[[0,0.5],[1,0.5]];portConstraint=eastwest;fontSize=12;" parent="g4WrYvB8RdJQh1RJ1ry5-105" vertex="1">
                    <mxGeometry y="394" width="160" height="30" as="geometry"/>
                </mxCell>
                <mxCell id="g4WrYvB8RdJQh1RJ1ry5-118" value="emotions" style="text;strokeColor=none;fillColor=none;spacingLeft=4;spacingRight=4;overflow=hidden;rotatable=0;points=[[0,0.5],[1,0.5]];portConstraint=eastwest;fontSize=12;" parent="g4WrYvB8RdJQh1RJ1ry5-105" vertex="1">
                    <mxGeometry y="424" width="160" height="30" as="geometry"/>
                </mxCell>
                <mxCell id="g4WrYvB8RdJQh1RJ1ry5-119" value="flavor" style="text;strokeColor=none;fillColor=none;spacingLeft=4;spacingRight=4;overflow=hidden;rotatable=0;points=[[0,0.5],[1,0.5]];portConstraint=eastwest;fontSize=12;" parent="g4WrYvB8RdJQh1RJ1ry5-105" vertex="1">
                    <mxGeometry y="454" width="160" height="30" as="geometry"/>
                </mxCell>
                <mxCell id="g4WrYvB8RdJQh1RJ1ry5-120" value="classification" style="text;strokeColor=none;fillColor=none;spacingLeft=4;spacingRight=4;overflow=hidden;rotatable=0;points=[[0,0.5],[1,0.5]];portConstraint=eastwest;fontSize=12;" parent="g4WrYvB8RdJQh1RJ1ry5-105" vertex="1">
                    <mxGeometry y="484" width="160" height="30" as="geometry"/>
                </mxCell>
                <mxCell id="g4WrYvB8RdJQh1RJ1ry5-121" value="important_words" style="text;strokeColor=none;fillColor=none;spacingLeft=4;spacingRight=4;overflow=hidden;rotatable=0;points=[[0,0.5],[1,0.5]];portConstraint=eastwest;fontSize=12;" parent="g4WrYvB8RdJQh1RJ1ry5-105" vertex="1">
                    <mxGeometry y="514" width="160" height="30" as="geometry"/>
                </mxCell>
                <mxCell id="g4WrYvB8RdJQh1RJ1ry5-122" value="cause_effect_sentences" style="text;strokeColor=none;fillColor=none;spacingLeft=4;spacingRight=4;overflow=hidden;rotatable=0;points=[[0,0.5],[1,0.5]];portConstraint=eastwest;fontSize=12;" parent="g4WrYvB8RdJQh1RJ1ry5-105" vertex="1">
                    <mxGeometry y="544" width="160" height="30" as="geometry"/>
                </mxCell>
                <mxCell id="g4WrYvB8RdJQh1RJ1ry5-144" value="special_people" style="text;strokeColor=none;fillColor=none;spacingLeft=4;spacingRight=4;overflow=hidden;rotatable=0;points=[[0,0.5],[1,0.5]];portConstraint=eastwest;fontSize=12;" parent="g4WrYvB8RdJQh1RJ1ry5-105" vertex="1">
                    <mxGeometry y="574" width="160" height="30" as="geometry"/>
                </mxCell>
                <mxCell id="g4WrYvB8RdJQh1RJ1ry5-145" value="updated_statistic_at" style="text;strokeColor=none;fillColor=none;spacingLeft=4;spacingRight=4;overflow=hidden;rotatable=0;points=[[0,0.5],[1,0.5]];portConstraint=eastwest;fontSize=12;" parent="g4WrYvB8RdJQh1RJ1ry5-105" vertex="1">
                    <mxGeometry y="604" width="160" height="30" as="geometry"/>
                </mxCell>
                <mxCell id="g4WrYvB8RdJQh1RJ1ry5-146" value="created_at" style="text;strokeColor=none;fillColor=none;spacingLeft=4;spacingRight=4;overflow=hidden;rotatable=0;points=[[0,0.5],[1,0.5]];portConstraint=eastwest;fontSize=12;" parent="g4WrYvB8RdJQh1RJ1ry5-105" vertex="1">
                    <mxGeometry y="634" width="160" height="30" as="geometry"/>
                </mxCell>
                <mxCell id="g4WrYvB8RdJQh1RJ1ry5-147" value="updated_at" style="text;strokeColor=none;fillColor=none;spacingLeft=4;spacingRight=4;overflow=hidden;rotatable=0;points=[[0,0.5],[1,0.5]];portConstraint=eastwest;fontSize=12;" parent="g4WrYvB8RdJQh1RJ1ry5-105" vertex="1">
                    <mxGeometry y="664" width="160" height="30" as="geometry"/>
                </mxCell>
                <mxCell id="g4WrYvB8RdJQh1RJ1ry5-148" value="User" style="swimlane;fontStyle=0;childLayout=stackLayout;horizontal=1;startSize=26;horizontalStack=0;resizeParent=1;resizeParentMax=0;resizeLast=0;collapsible=1;marginBottom=0;align=center;fontSize=14;" parent="1" vertex="1">
                    <mxGeometry x="1370" y="100" width="160" height="120" as="geometry"/>
                </mxCell>
                <mxCell id="g4WrYvB8RdJQh1RJ1ry5-149" value="id" style="text;strokeColor=none;fillColor=none;spacingLeft=4;spacingRight=4;overflow=hidden;rotatable=0;points=[[0,0.5],[1,0.5]];portConstraint=eastwest;fontSize=12;" parent="g4WrYvB8RdJQh1RJ1ry5-148" vertex="1">
                    <mxGeometry y="26" width="160" height="34" as="geometry"/>
                </mxCell>
                <mxCell id="g4WrYvB8RdJQh1RJ1ry5-151" value="name" style="text;strokeColor=none;fillColor=none;spacingLeft=4;spacingRight=4;overflow=hidden;rotatable=0;points=[[0,0.5],[1,0.5]];portConstraint=eastwest;fontSize=12;" parent="g4WrYvB8RdJQh1RJ1ry5-148" vertex="1">
                    <mxGeometry y="60" width="160" height="30" as="geometry"/>
                </mxCell>
                <mxCell id="g4WrYvB8RdJQh1RJ1ry5-152" value="以下略" style="text;strokeColor=none;fillColor=none;spacingLeft=4;spacingRight=4;overflow=hidden;rotatable=0;points=[[0,0.5],[1,0.5]];portConstraint=eastwest;fontSize=12;" parent="g4WrYvB8RdJQh1RJ1ry5-148" vertex="1">
                    <mxGeometry y="90" width="160" height="30" as="geometry"/>
                </mxCell>
                <mxCell id="2" value="" style="rounded=0;whiteSpace=wrap;html=1;fillColor=none;" vertex="1" parent="1">
                    <mxGeometry x="-910" y="2994" width="640" height="900" as="geometry"/>
                </mxCell>
                <mxCell id="3" value="nlpForTotal" style="text;html=1;strokeColor=none;fillColor=none;align=center;verticalAlign=middle;whiteSpace=wrap;rounded=0;fontSize=80;" vertex="1" parent="1">
                    <mxGeometry x="-810" y="2834" width="440" height="120" as="geometry"/>
                </mxCell>
                <mxCell id="4" value="" style="rounded=0;whiteSpace=wrap;html=1;fillColor=none;" vertex="1" parent="1">
                    <mxGeometry x="100" y="3004" width="640" height="900" as="geometry"/>
                </mxCell>
                <mxCell id="5" value="nlpForYear" style="text;html=1;strokeColor=none;fillColor=none;align=center;verticalAlign=middle;whiteSpace=wrap;rounded=0;fontSize=80;" vertex="1" parent="1">
                    <mxGeometry x="200" y="2844" width="440" height="120" as="geometry"/>
                </mxCell>
                <mxCell id="6" value="nlpForMonth" style="text;html=1;strokeColor=none;fillColor=none;align=center;verticalAlign=middle;whiteSpace=wrap;rounded=0;fontSize=80;" vertex="1" parent="1">
                    <mxGeometry x="1160" y="2844" width="480" height="120" as="geometry"/>
                </mxCell>
                <mxCell id="7" value="" style="rounded=0;whiteSpace=wrap;html=1;fillColor=none;" vertex="1" parent="1">
                    <mxGeometry x="1060" y="3004" width="640" height="900" as="geometry"/>
                </mxCell>
                <mxCell id="8" value="nlpForDay" style="text;html=1;strokeColor=none;fillColor=none;align=center;verticalAlign=middle;whiteSpace=wrap;rounded=0;fontSize=80;" vertex="1" parent="1">
                    <mxGeometry x="2080" y="2834" width="480" height="120" as="geometry"/>
                </mxCell>
                <mxCell id="9" value="" style="rounded=0;whiteSpace=wrap;html=1;fillColor=none;" vertex="1" parent="1">
                    <mxGeometry x="1980" y="2994" width="640" height="900" as="geometry"/>
                </mxCell>
                <mxCell id="11" value="throwPython.php" style="text;html=1;strokeColor=none;fillColor=none;align=center;verticalAlign=middle;whiteSpace=wrap;rounded=0;fontSize=80;" vertex="1" parent="1">
                    <mxGeometry x="5230" y="1640" width="670" height="120" as="geometry"/>
                </mxCell>
                <mxCell id="12" value="updateStatsitcController.php" style="text;html=1;strokeColor=none;fillColor=none;align=center;verticalAlign=middle;whiteSpace=wrap;rounded=0;fontSize=80;" vertex="1" parent="1">
                    <mxGeometry x="-190" y="1650" width="1080" height="120" as="geometry"/>
                </mxCell>
                <mxCell id="13" value="showStatisticController.php&lt;br&gt;(統計)" style="text;html=1;strokeColor=none;fillColor=none;align=center;verticalAlign=middle;whiteSpace=wrap;rounded=0;fontSize=80;" vertex="1" parent="1">
                    <mxGeometry x="950" y="-960" width="1175" height="280" as="geometry"/>
                </mxCell>
                <mxCell id="14" value="makeStatsitcController.php" style="text;html=1;strokeColor=none;fillColor=none;align=center;verticalAlign=middle;whiteSpace=wrap;rounded=0;fontSize=80;" vertex="1" parent="1">
                    <mxGeometry x="1250" y="1655" width="1080" height="120" as="geometry"/>
                </mxCell>
                <mxCell id="15" value="statisticsTop.blade.php" style="text;html=1;strokeColor=none;fillColor=none;align=center;verticalAlign=middle;whiteSpace=wrap;rounded=0;fontSize=80;" vertex="1" parent="1">
                    <mxGeometry x="410" y="-2510" width="1030" height="120" as="geometry"/>
                </mxCell>
                <mxCell id="19" value="monthArchive.php" style="text;html=1;strokeColor=none;fillColor=none;align=center;verticalAlign=middle;whiteSpace=wrap;rounded=0;fontSize=80;" vertex="1" parent="1">
                    <mxGeometry x="420" y="-2280" width="1030" height="120" as="geometry"/>
                </mxCell>
                <mxCell id="20" value="YearArchive.php" style="text;html=1;strokeColor=none;fillColor=none;align=center;verticalAlign=middle;whiteSpace=wrap;rounded=0;fontSize=80;" vertex="1" parent="1">
                    <mxGeometry x="450" y="-2100" width="1030" height="120" as="geometry"/>
                </mxCell>
                <mxCell id="21" value="edit.blade.php" style="text;html=1;strokeColor=none;fillColor=none;align=center;verticalAlign=middle;whiteSpace=wrap;rounded=0;fontSize=80;" vertex="1" parent="1">
                    <mxGeometry x="400" y="-1940" width="1030" height="120" as="geometry"/>
                </mxCell>
                <mxCell id="176" value="" style="group;strokeWidth=6;" vertex="1" connectable="0" parent="1">
                    <mxGeometry x="-800" y="-3050" width="1030" height="1230" as="geometry"/>
                </mxCell>
                <mxCell id="18" value="" style="rounded=0;whiteSpace=wrap;html=1;fillColor=none;" vertex="1" parent="176">
                    <mxGeometry x="20" width="1000" height="1230" as="geometry"/>
                </mxCell>
                <mxCell id="22" value="コンポーネント切ることでアーカイブ、統計、個別日記の見た目を揃える&amp;amp;変更を同時反映" style="text;html=1;strokeColor=none;fillColor=none;align=center;verticalAlign=middle;whiteSpace=wrap;rounded=0;fontSize=20;" vertex="1" parent="176">
                    <mxGeometry x="69" y="120" width="910" height="80" as="geometry"/>
                </mxCell>
                <mxCell id="23" value="&amp;gt;components&amp;gt;statistic" style="text;html=1;strokeColor=none;fillColor=none;align=center;verticalAlign=middle;whiteSpace=wrap;rounded=0;fontSize=80;" vertex="1" parent="176">
                    <mxGeometry y="20" width="1030" height="120" as="geometry"/>
                </mxCell>
                <mxCell id="57" value="" style="shape=table;html=1;whiteSpace=wrap;startSize=0;container=1;collapsible=0;childLayout=tableLayout;fontSize=40;" vertex="1" parent="176">
                    <mxGeometry x="80" y="293" width="640" height="547" as="geometry"/>
                </mxCell>
                <mxCell id="58" value="" style="shape=partialRectangle;html=1;whiteSpace=wrap;collapsible=0;dropTarget=0;pointerEvents=0;fillColor=none;top=0;left=0;bottom=0;right=0;points=[[0,0.5],[1,0.5]];portConstraint=eastwest;" vertex="1" parent="57">
                    <mxGeometry width="640" height="39" as="geometry"/>
                </mxCell>
                <mxCell id="59" value="statistic_progress" style="shape=partialRectangle;html=1;whiteSpace=wrap;connectable=0;fillColor=none;top=0;left=0;bottom=0;right=0;overflow=hidden;" vertex="1" parent="58">
                    <mxGeometry width="180" height="39" as="geometry"/>
                </mxCell>
                <mxCell id="60" value="自然言語処理生成状況の円グラフ" style="shape=partialRectangle;html=1;whiteSpace=wrap;connectable=0;fillColor=none;top=0;left=0;bottom=0;right=0;overflow=hidden;" vertex="1" parent="58">
                    <mxGeometry x="180" width="229" height="39" as="geometry"/>
                </mxCell>
                <mxCell id="61" value=".blade.php" style="shape=partialRectangle;html=1;whiteSpace=wrap;connectable=0;fillColor=none;top=0;left=0;bottom=0;right=0;overflow=hidden;" vertex="1" parent="58">
                    <mxGeometry x="409" width="231" height="39" as="geometry"/>
                </mxCell>
                <mxCell id="62" value="" style="shape=partialRectangle;html=1;whiteSpace=wrap;collapsible=0;dropTarget=0;pointerEvents=0;fillColor=none;top=0;left=0;bottom=0;right=0;points=[[0,0.5],[1,0.5]];portConstraint=eastwest;" vertex="1" parent="57">
                    <mxGeometry y="39" width="640" height="31" as="geometry"/>
                </mxCell>
                <mxCell id="63" value="ave_emotions&lt;br&gt;(アーカイブ、統計)" style="shape=partialRectangle;html=1;whiteSpace=wrap;connectable=0;fillColor=none;top=0;left=0;bottom=0;right=0;overflow=hidden;" vertex="1" parent="62">
                    <mxGeometry width="180" height="31" as="geometry"/>
                </mxCell>
                <mxCell id="64" value="感情数値化のグラフ" style="shape=partialRectangle;html=1;whiteSpace=wrap;connectable=0;fillColor=none;top=0;left=0;bottom=0;right=0;overflow=hidden;" vertex="1" parent="62">
                    <mxGeometry x="180" width="229" height="31" as="geometry"/>
                </mxCell>
                <mxCell id="65" value="" style="shape=partialRectangle;html=1;whiteSpace=wrap;connectable=0;fillColor=none;top=0;left=0;bottom=0;right=0;overflow=hidden;" vertex="1" parent="62">
                    <mxGeometry x="409" width="231" height="31" as="geometry"/>
                </mxCell>
                <mxCell id="66" value="" style="shape=partialRectangle;html=1;whiteSpace=wrap;collapsible=0;dropTarget=0;pointerEvents=0;fillColor=none;top=0;left=0;bottom=0;right=0;points=[[0,0.5],[1,0.5]];portConstraint=eastwest;" vertex="1" parent="57">
                    <mxGeometry y="70" width="640" height="38" as="geometry"/>
                </mxCell>
                <mxCell id="67" value="emotions" style="shape=partialRectangle;html=1;whiteSpace=wrap;connectable=0;fillColor=none;top=0;left=0;bottom=0;right=0;overflow=hidden;" vertex="1" parent="66">
                    <mxGeometry width="180" height="38" as="geometry"/>
                </mxCell>
                <mxCell id="68" value="感情数値化(文字分岐)" style="shape=partialRectangle;html=1;whiteSpace=wrap;connectable=0;fillColor=none;top=0;left=0;bottom=0;right=0;overflow=hidden;" vertex="1" parent="66">
                    <mxGeometry x="180" width="229" height="38" as="geometry"/>
                </mxCell>
                <mxCell id="69" value="" style="shape=partialRectangle;html=1;whiteSpace=wrap;connectable=0;fillColor=none;top=0;left=0;bottom=0;right=0;overflow=hidden;" vertex="1" parent="66">
                    <mxGeometry x="409" width="231" height="38" as="geometry"/>
                </mxCell>
                <mxCell id="72" value="" style="shape=partialRectangle;html=1;whiteSpace=wrap;collapsible=0;dropTarget=0;pointerEvents=0;fillColor=none;top=0;left=0;bottom=0;right=0;points=[[0,0.5],[1,0.5]];portConstraint=eastwest;" vertex="1" parent="57">
                    <mxGeometry y="108" width="640" height="38" as="geometry"/>
                </mxCell>
                <mxCell id="73" value="flavor" style="shape=partialRectangle;html=1;whiteSpace=wrap;connectable=0;fillColor=none;top=0;left=0;bottom=0;right=0;overflow=hidden;" vertex="1" parent="72">
                    <mxGeometry width="180" height="38" as="geometry"/>
                </mxCell>
                <mxCell id="74" value="ユーザーの日記らしさ(文字分岐)" style="shape=partialRectangle;html=1;whiteSpace=wrap;connectable=0;fillColor=none;top=0;left=0;bottom=0;right=0;overflow=hidden;" vertex="1" parent="72">
                    <mxGeometry x="180" width="229" height="38" as="geometry"/>
                </mxCell>
                <mxCell id="75" value="" style="shape=partialRectangle;html=1;whiteSpace=wrap;connectable=0;fillColor=none;top=0;left=0;bottom=0;right=0;overflow=hidden;" vertex="1" parent="72">
                    <mxGeometry x="409" width="231" height="38" as="geometry"/>
                </mxCell>
                <mxCell id="76" value="" style="shape=partialRectangle;html=1;whiteSpace=wrap;collapsible=0;dropTarget=0;pointerEvents=0;fillColor=none;top=0;left=0;bottom=0;right=0;points=[[0,0.5],[1,0.5]];portConstraint=eastwest;" vertex="1" parent="57">
                    <mxGeometry y="146" width="640" height="44" as="geometry"/>
                </mxCell>
                <mxCell id="77" value="classification&lt;br&gt;classifications&lt;br&gt;個別、アーカイブ、統計" style="shape=partialRectangle;html=1;whiteSpace=wrap;connectable=0;fillColor=none;top=0;left=0;bottom=0;right=0;overflow=hidden;" vertex="1" parent="76">
                    <mxGeometry width="180" height="44" as="geometry"/>
                </mxCell>
                <mxCell id="78" value="推定分類(文字分岐)" style="shape=partialRectangle;html=1;whiteSpace=wrap;connectable=0;fillColor=none;top=0;left=0;bottom=0;right=0;overflow=hidden;" vertex="1" parent="76">
                    <mxGeometry x="180" width="229" height="44" as="geometry"/>
                </mxCell>
                <mxCell id="79" value="" style="shape=partialRectangle;html=1;whiteSpace=wrap;connectable=0;fillColor=none;top=0;left=0;bottom=0;right=0;overflow=hidden;" vertex="1" parent="76">
                    <mxGeometry x="409" width="231" height="44" as="geometry"/>
                </mxCell>
                <mxCell id="80" value="" style="shape=partialRectangle;html=1;whiteSpace=wrap;collapsible=0;dropTarget=0;pointerEvents=0;fillColor=none;top=0;left=0;bottom=0;right=0;points=[[0,0.5],[1,0.5]];portConstraint=eastwest;" vertex="1" parent="57">
                    <mxGeometry y="190" width="640" height="35" as="geometry"/>
                </mxCell>
                <mxCell id="81" value="&lt;span&gt;important_words&lt;br&gt;個別、アーカイブ&lt;br&gt;&lt;/span&gt;" style="shape=partialRectangle;html=1;whiteSpace=wrap;connectable=0;fillColor=none;top=0;left=0;bottom=0;right=0;overflow=hidden;" vertex="1" parent="80">
                    <mxGeometry width="180" height="35" as="geometry"/>
                </mxCell>
                <mxCell id="82" value="重要そうな言葉(グラフor文字)" style="shape=partialRectangle;html=1;whiteSpace=wrap;connectable=0;fillColor=none;top=0;left=0;bottom=0;right=0;overflow=hidden;" vertex="1" parent="80">
                    <mxGeometry x="180" width="229" height="35" as="geometry"/>
                </mxCell>
                <mxCell id="83" value="" style="shape=partialRectangle;html=1;whiteSpace=wrap;connectable=0;fillColor=none;top=0;left=0;bottom=0;right=0;overflow=hidden;" vertex="1" parent="80">
                    <mxGeometry x="409" width="231" height="35" as="geometry"/>
                </mxCell>
                <mxCell id="148" value="" style="shape=partialRectangle;html=1;whiteSpace=wrap;collapsible=0;dropTarget=0;pointerEvents=0;fillColor=none;top=0;left=0;bottom=0;right=0;points=[[0,0.5],[1,0.5]];portConstraint=eastwest;" vertex="1" parent="57">
                    <mxGeometry y="225" width="640" height="35" as="geometry"/>
                </mxCell>
                <mxCell id="149" value="cause_effect_sentences" style="shape=partialRectangle;html=1;whiteSpace=wrap;connectable=0;fillColor=none;top=0;left=0;bottom=0;right=0;overflow=hidden;" vertex="1" parent="148">
                    <mxGeometry width="180" height="35" as="geometry"/>
                </mxCell>
                <mxCell id="150" value="原因と結果の図(html構造)" style="shape=partialRectangle;html=1;whiteSpace=wrap;connectable=0;fillColor=none;top=0;left=0;bottom=0;right=0;overflow=hidden;" vertex="1" parent="148">
                    <mxGeometry x="180" width="229" height="35" as="geometry"/>
                </mxCell>
                <mxCell id="151" value="" style="shape=partialRectangle;html=1;whiteSpace=wrap;connectable=0;fillColor=none;top=0;left=0;bottom=0;right=0;overflow=hidden;" vertex="1" parent="148">
                    <mxGeometry x="409" width="231" height="35" as="geometry"/>
                </mxCell>
                <mxCell id="152" value="" style="shape=partialRectangle;html=1;whiteSpace=wrap;collapsible=0;dropTarget=0;pointerEvents=0;fillColor=none;top=0;left=0;bottom=0;right=0;points=[[0,0.5],[1,0.5]];portConstraint=eastwest;" vertex="1" parent="57">
                    <mxGeometry y="260" width="640" height="39" as="geometry"/>
                </mxCell>
                <mxCell id="153" value="special_people&lt;br&gt;個別、アーカイブ、統計" style="shape=partialRectangle;html=1;whiteSpace=wrap;connectable=0;fillColor=none;top=0;left=0;bottom=0;right=0;overflow=hidden;" vertex="1" parent="152">
                    <mxGeometry width="180" height="39" as="geometry"/>
                </mxCell>
                <mxCell id="154" value="登場人物(html構造)" style="shape=partialRectangle;html=1;whiteSpace=wrap;connectable=0;fillColor=none;top=0;left=0;bottom=0;right=0;overflow=hidden;" vertex="1" parent="152">
                    <mxGeometry x="180" width="229" height="39" as="geometry"/>
                </mxCell>
                <mxCell id="155" value=".blade.php" style="shape=partialRectangle;html=1;whiteSpace=wrap;connectable=0;fillColor=none;top=0;left=0;bottom=0;right=0;overflow=hidden;" vertex="1" parent="152">
                    <mxGeometry x="409" width="231" height="39" as="geometry"/>
                </mxCell>
                <mxCell id="156" value="" style="shape=partialRectangle;html=1;whiteSpace=wrap;collapsible=0;dropTarget=0;pointerEvents=0;fillColor=none;top=0;left=0;bottom=0;right=0;points=[[0,0.5],[1,0.5]];portConstraint=eastwest;" vertex="1" parent="57">
                    <mxGeometry y="299" width="640" height="43" as="geometry"/>
                </mxCell>
                <mxCell id="157" value="word_counts&lt;br&gt;アーカイブ、統計" style="shape=partialRectangle;html=1;whiteSpace=wrap;connectable=0;fillColor=none;top=0;left=0;bottom=0;right=0;overflow=hidden;" vertex="1" parent="156">
                    <mxGeometry width="180" height="43" as="geometry"/>
                </mxCell>
                <mxCell id="158" value="文字数推移" style="shape=partialRectangle;html=1;whiteSpace=wrap;connectable=0;fillColor=none;top=0;left=0;bottom=0;right=0;overflow=hidden;" vertex="1" parent="156">
                    <mxGeometry x="180" width="229" height="43" as="geometry"/>
                </mxCell>
                <mxCell id="159" value="" style="shape=partialRectangle;html=1;whiteSpace=wrap;connectable=0;fillColor=none;top=0;left=0;bottom=0;right=0;overflow=hidden;" vertex="1" parent="156">
                    <mxGeometry x="409" width="231" height="43" as="geometry"/>
                </mxCell>
                <mxCell id="160" value="" style="shape=partialRectangle;html=1;whiteSpace=wrap;collapsible=0;dropTarget=0;pointerEvents=0;fillColor=none;top=0;left=0;bottom=0;right=0;points=[[0,0.5],[1,0.5]];portConstraint=eastwest;" vertex="1" parent="57">
                    <mxGeometry y="342" width="640" height="58" as="geometry"/>
                </mxCell>
                <mxCell id="161" value="noun_rank&lt;br&gt;total_noun_asc&lt;br&gt;アーカイブ、統計" style="shape=partialRectangle;html=1;whiteSpace=wrap;connectable=0;fillColor=none;top=0;left=0;bottom=0;right=0;overflow=hidden;" vertex="1" parent="160">
                    <mxGeometry width="180" height="58" as="geometry"/>
                </mxCell>
                <mxCell id="162" value="名詞登場順グラフ" style="shape=partialRectangle;html=1;whiteSpace=wrap;connectable=0;fillColor=none;top=0;left=0;bottom=0;right=0;overflow=hidden;" vertex="1" parent="160">
                    <mxGeometry x="180" width="229" height="58" as="geometry"/>
                </mxCell>
                <mxCell id="163" value=".blade.php" style="shape=partialRectangle;html=1;whiteSpace=wrap;connectable=0;fillColor=none;top=0;left=0;bottom=0;right=0;overflow=hidden;" vertex="1" parent="160">
                    <mxGeometry x="409" width="231" height="58" as="geometry"/>
                </mxCell>
                <mxCell id="164" value="" style="shape=partialRectangle;html=1;whiteSpace=wrap;collapsible=0;dropTarget=0;pointerEvents=0;fillColor=none;top=0;left=0;bottom=0;right=0;points=[[0,0.5],[1,0.5]];portConstraint=eastwest;" vertex="1" parent="57">
                    <mxGeometry y="400" width="640" height="70" as="geometry"/>
                </mxCell>
                <mxCell id="165" value="adjective_rank&lt;br&gt;total_adjective_asc&lt;br&gt;アーカイブ、統計" style="shape=partialRectangle;html=1;whiteSpace=wrap;connectable=0;fillColor=none;top=0;left=0;bottom=0;right=0;overflow=hidden;" vertex="1" parent="164">
                    <mxGeometry width="180" height="70" as="geometry"/>
                </mxCell>
                <mxCell id="166" value="形容詞登場順グラフ" style="shape=partialRectangle;html=1;whiteSpace=wrap;connectable=0;fillColor=none;top=0;left=0;bottom=0;right=0;overflow=hidden;" vertex="1" parent="164">
                    <mxGeometry x="180" width="229" height="70" as="geometry"/>
                </mxCell>
                <mxCell id="167" value="" style="shape=partialRectangle;html=1;whiteSpace=wrap;connectable=0;fillColor=none;top=0;left=0;bottom=0;right=0;overflow=hidden;" vertex="1" parent="164">
                    <mxGeometry x="409" width="231" height="70" as="geometry"/>
                </mxCell>
                <mxCell id="168" value="" style="shape=partialRectangle;html=1;whiteSpace=wrap;collapsible=0;dropTarget=0;pointerEvents=0;fillColor=none;top=0;left=0;bottom=0;right=0;points=[[0,0.5],[1,0.5]];portConstraint=eastwest;" vertex="1" parent="57">
                    <mxGeometry y="470" width="640" height="35" as="geometry"/>
                </mxCell>
                <mxCell id="169" value="&lt;span&gt;important_words&lt;/span&gt;" style="shape=partialRectangle;html=1;whiteSpace=wrap;connectable=0;fillColor=none;top=0;left=0;bottom=0;right=0;overflow=hidden;" vertex="1" parent="168">
                    <mxGeometry width="180" height="35" as="geometry"/>
                </mxCell>
                <mxCell id="170" value="重要そうな言葉(グラフor文字)" style="shape=partialRectangle;html=1;whiteSpace=wrap;connectable=0;fillColor=none;top=0;left=0;bottom=0;right=0;overflow=hidden;" vertex="1" parent="168">
                    <mxGeometry x="180" width="229" height="35" as="geometry"/>
                </mxCell>
                <mxCell id="171" value="" style="shape=partialRectangle;html=1;whiteSpace=wrap;connectable=0;fillColor=none;top=0;left=0;bottom=0;right=0;overflow=hidden;" vertex="1" parent="168">
                    <mxGeometry x="409" width="231" height="35" as="geometry"/>
                </mxCell>
                <mxCell id="172" value="" style="shape=partialRectangle;html=1;whiteSpace=wrap;collapsible=0;dropTarget=0;pointerEvents=0;fillColor=none;top=0;left=0;bottom=0;right=0;points=[[0,0.5],[1,0.5]];portConstraint=eastwest;" vertex="1" parent="57">
                    <mxGeometry y="505" width="640" height="42" as="geometry"/>
                </mxCell>
                <mxCell id="173" value="classification" style="shape=partialRectangle;html=1;whiteSpace=wrap;connectable=0;fillColor=none;top=0;left=0;bottom=0;right=0;overflow=hidden;" vertex="1" parent="172">
                    <mxGeometry width="180" height="42" as="geometry"/>
                </mxCell>
                <mxCell id="174" value="推定分類(文字分岐)" style="shape=partialRectangle;html=1;whiteSpace=wrap;connectable=0;fillColor=none;top=0;left=0;bottom=0;right=0;overflow=hidden;" vertex="1" parent="172">
                    <mxGeometry x="180" width="229" height="42" as="geometry"/>
                </mxCell>
                <mxCell id="175" value="" style="shape=partialRectangle;html=1;whiteSpace=wrap;connectable=0;fillColor=none;top=0;left=0;bottom=0;right=0;overflow=hidden;" vertex="1" parent="172">
                    <mxGeometry x="409" width="231" height="42" as="geometry"/>
                </mxCell>
                <mxCell id="186" value="" style="rounded=0;whiteSpace=wrap;html=1;fillColor=none;fontSize=13;spacing=3;strokeWidth=6;" vertex="1" parent="1">
                    <mxGeometry x="-1770" y="-4060" width="5480" height="2330" as="geometry"/>
                </mxCell>
                <mxCell id="187" value="&lt;font style=&quot;font-size: 200px&quot;&gt;Blade&lt;/font&gt;" style="text;html=1;strokeColor=none;fillColor=none;align=center;verticalAlign=middle;whiteSpace=wrap;rounded=0;fontSize=200;" vertex="1" parent="1">
                    <mxGeometry x="-1750" y="-1995" width="590" height="230" as="geometry"/>
                </mxCell>
                <mxCell id="188" value="&lt;font style=&quot;font-size: 200px&quot;&gt;Python&lt;/font&gt;" style="text;html=1;strokeColor=none;fillColor=none;align=center;verticalAlign=middle;whiteSpace=wrap;rounded=0;fontSize=200;" vertex="1" parent="1">
                    <mxGeometry x="-1660" y="2674" width="590" height="230" as="geometry"/>
                </mxCell>
                <mxCell id="189" value="&lt;font style=&quot;font-size: 200px&quot;&gt;Controller&lt;/font&gt;" style="text;html=1;strokeColor=none;fillColor=none;align=center;verticalAlign=middle;whiteSpace=wrap;rounded=0;fontSize=200;" vertex="1" parent="1">
                    <mxGeometry x="-1750" y="-1080" width="1100" height="230" as="geometry"/>
                </mxCell>
                <mxCell id="190" value="&lt;font style=&quot;font-size: 200px&quot;&gt;Controller&lt;/font&gt;" style="text;html=1;strokeColor=none;fillColor=none;align=center;verticalAlign=middle;whiteSpace=wrap;rounded=0;fontSize=200;" vertex="1" parent="1">
                    <mxGeometry x="-1820" y="1600" width="1100" height="230" as="geometry"/>
                </mxCell>
                <mxCell id="192" value="showDiaryController.php&lt;br&gt;(アーカイブ)" style="text;html=1;strokeColor=none;fillColor=none;align=center;verticalAlign=middle;whiteSpace=wrap;rounded=0;fontSize=80;" vertex="1" parent="1">
                    <mxGeometry x="-505" y="-920" width="1175" height="250" as="geometry"/>
                </mxCell>
                <mxCell id="193" value="EditDiaryController.php&lt;br&gt;(個別)" style="text;html=1;strokeColor=none;fillColor=none;align=center;verticalAlign=middle;whiteSpace=wrap;rounded=0;fontSize=80;" vertex="1" parent="1">
                    <mxGeometry x="2320" y="-960" width="1175" height="220" as="geometry"/>
                </mxCell>
                <mxCell id="200" value="Custom&lt;br&gt;Function" style="text;html=1;strokeColor=none;fillColor=none;align=center;verticalAlign=middle;whiteSpace=wrap;rounded=0;fontSize=200;" vertex="1" parent="1">
                    <mxGeometry x="4190" y="-25" width="860" height="544" as="geometry"/>
                </mxCell>
                <mxCell id="204" value="calculateDiary.php" style="text;html=1;strokeColor=none;fillColor=none;align=center;verticalAlign=middle;whiteSpace=wrap;rounded=0;fontSize=80;" vertex="1" parent="1">
                    <mxGeometry x="4300" y="1650" width="670" height="120" as="geometry"/>
                </mxCell>
                <mxCell id="207" value="" style="shape=flexArrow;endArrow=classic;startArrow=classic;html=1;fontSize=200;endWidth=114.28571428571429;endSize=28.571428571428573;startWidth=114.28571428571429;startSize=28.571428571428573;width=80;fillColor=#ffffff;" edge="1" parent="1">
                    <mxGeometry width="100" height="100" relative="1" as="geometry">
                        <mxPoint x="3740" y="1690" as="sourcePoint"/>
                        <mxPoint x="4130" y="1690" as="targetPoint"/>
                    </mxGeometry>
                </mxCell>
                <mxCell id="209" value="" style="shape=flexArrow;endArrow=classic;startArrow=classic;html=1;fontSize=200;endWidth=114.28571428571429;endSize=28.571428571428573;startWidth=114.28571428571429;startSize=28.571428571428573;width=80;fillColor=#ffffff;" edge="1" parent="1">
                    <mxGeometry width="100" height="100" relative="1" as="geometry">
                        <mxPoint x="1654" y="2160" as="sourcePoint"/>
                        <mxPoint x="1654" y="2590" as="targetPoint"/>
                    </mxGeometry>
                </mxCell>
                <mxCell id="210" value="" style="shape=flexArrow;endArrow=classic;startArrow=classic;html=1;fontSize=200;endWidth=114.28571428571429;endSize=28.571428571428573;startWidth=114.28571428571429;startSize=28.571428571428573;width=80;fillColor=#ffffff;" edge="1" parent="1">
                    <mxGeometry width="100" height="100" relative="1" as="geometry">
                        <mxPoint x="1652" y="720" as="sourcePoint"/>
                        <mxPoint x="1652" y="1150.0000000000018" as="targetPoint"/>
                    </mxGeometry>
                </mxCell>
                <mxCell id="213" value="" style="shape=flexArrow;endArrow=classic;startArrow=classic;html=1;fontSize=200;endWidth=114.28571428571429;endSize=28.571428571428573;startWidth=114.28571428571429;startSize=28.571428571428573;width=80;fillColor=#ffffff;exitX=0.597;exitY=0.998;exitDx=0;exitDy=0;exitPerimeter=0;" edge="1" parent="1">
                    <mxGeometry width="100" height="100" relative="1" as="geometry">
                        <mxPoint x="1652.0000000000011" y="-1690.000000000001" as="sourcePoint"/>
                        <mxPoint x="1652.53" y="-1448.039999999999" as="targetPoint"/>
                    </mxGeometry>
                </mxCell>
                <mxCell id="214" value="" style="shape=flexArrow;endArrow=classic;startArrow=classic;html=1;fontSize=200;endWidth=114.28571428571429;endSize=28.571428571428573;startWidth=114.28571428571429;startSize=28.571428571428573;width=80;fillColor=#ffffff;exitX=0.597;exitY=0.998;exitDx=0;exitDy=0;exitPerimeter=0;" edge="1" parent="1">
                    <mxGeometry width="100" height="100" relative="1" as="geometry">
                        <mxPoint x="1660.0000000000002" y="-420.00000000000006" as="sourcePoint"/>
                        <mxPoint x="1660.53" y="-178.03999999999817" as="targetPoint"/>
                    </mxGeometry>
                </mxCell>
                <mxCell id="215" value="" style="rounded=0;whiteSpace=wrap;html=1;fillColor=none;fontSize=13;spacing=3;strokeWidth=6;" vertex="1" parent="1">
                    <mxGeometry x="-330" y="4034" width="3690" height="1576" as="geometry"/>
                </mxCell>
                <mxCell id="218" value="nlp" style="text;html=1;strokeColor=none;fillColor=none;align=center;verticalAlign=middle;whiteSpace=wrap;rounded=0;fontSize=80;" vertex="1" parent="1">
                    <mxGeometry x="-330" y="4040" width="250" height="120" as="geometry"/>
                </mxCell>
                <mxCell id="219" value="" style="group" vertex="1" connectable="0" parent="1">
                    <mxGeometry x="-1450" y="4060" width="790" height="1040" as="geometry"/>
                </mxCell>
                <mxCell id="183" value="" style="rounded=0;whiteSpace=wrap;html=1;fillColor=none;fontSize=13;spacing=3;strokeWidth=6;" vertex="1" parent="219">
                    <mxGeometry x="80" width="710" height="1040" as="geometry"/>
                </mxCell>
                <mxCell id="184" value="base" style="text;html=1;strokeColor=none;fillColor=none;align=center;verticalAlign=middle;whiteSpace=wrap;rounded=0;fontSize=80;" vertex="1" parent="219">
                    <mxGeometry y="6" width="440" height="120" as="geometry"/>
                </mxCell>
                <mxCell id="216" value="connectDB.py" style="text;html=1;strokeColor=none;fillColor=none;align=center;verticalAlign=middle;whiteSpace=wrap;rounded=0;fontSize=80;" vertex="1" parent="219">
                    <mxGeometry x="210" y="206" width="440" height="120" as="geometry"/>
                </mxCell>
                <mxCell id="217" value="loadEnv.py" style="text;html=1;strokeColor=none;fillColor=none;align=center;verticalAlign=middle;whiteSpace=wrap;rounded=0;fontSize=80;" vertex="1" parent="219">
                    <mxGeometry x="215" y="356" width="440" height="120" as="geometry"/>
                </mxCell>
            </root>
        </mxGraphModel>
    </diagram>
</mxfile>